<?xml version="1.0" standalone="no"?><!DOCTYPE svg PUBLIC "-//W3C//DTD SVG 1.1//EN" "http://www.w3.org/Graphics/SVG/1.1/DTD/svg11.dtd"><svg t="1718883947080" class="icon" viewBox="0 0 1024 1024" version="1.1" xmlns="http://www.w3.org/2000/svg" p-id="4461" xmlns:xlink="http://www.w3.org/1999/xlink" width="200" height="200"><path d="M188.578232 834.582295A501.76792 501.76792 0 0 1 651.298765 7.659406a13.315699 13.315699 0 0 1 2.159303 25.731688 400.370673 400.370673 0 1 0 304.371682 738.931312 13.315699 13.315699 0 0 1 16.644624 19.433723 502.307746 502.307746 0 0 1-564.657606 188.03926 534.427371 534.427371 0 0 1-221.238536-145.213094z" fill="#F89B1B" p-id="4462"></path><path d="M700.782781 897.471981a440.857595 440.857595 0 0 1-38.957416-880.005743A13.045786 13.045786 0 0 0 651.298765 7.659406a501.76792 501.76792 0 0 0-462.720533 826.922889 534.427371 534.427371 0 0 0 221.238536 145.393036 502.217775 502.217775 0 0 0 546.84336-164.466875 438.518351 438.518351 0 0 1-255.877347 81.963525z" fill="#F89B1B" opacity=".4" p-id="4463"></path><path d="M651.388736 829.363981a41.20669 41.20669 0 0 0-52.453057 26.991281c-1.349564 5.398256-4.408576 33.649131 21.862938 40.30698a23.302473 23.302473 0 0 0 31.219916-16.194768 17.094478 17.094478 0 1 0-33.109306-8.457269s-2.699128-3.328925 0-13.135757 13.495641-13.225728 26.991282-9.716861 44.08576 31.939683 30.050293 88.441432c-12.775873 51.82326-68.737796 71.97675-104.006404 67.028349a64.959017 64.959017 0 0 1 6.387937 17.994187c45.885178 8.997094 104.816143-26.991281 118.401754-80.434018 14.575292-55.692011-7.377617-103.106695-45.345353-112.823556z" fill="#FED150" p-id="4464"></path><path d="M438.607468 757.027347c3.688808-3.418896 20.243461-23.752328 3.328925-42.016428a21.323112 21.323112 0 0 0-32.119625-3.148983 15.744914 15.744914 0 1 0 21.233141 23.122531s0 3.86875-6.74782 10.076745-17.004507 3.328925-25.91163-6.297966-17.994188-46.694917 21.233141-83.223117a74.945791 74.945791 0 0 1 30.860032-17.994188c-3.508867-5.308285-7.017733-10.706542-10.346658-16.194768a93.929659 93.929659 0 0 0-34.278927 19.793606c-38.597532 35.988375-45.525295 83.223117-21.0532 109.674573a37.787794 37.787794 0 0 0 53.802621 6.207995zM442.206306 15.126994c-13.855524 27.980962-12.146077 56.861633 4.948401 75.485617a37.877765 37.877765 0 0 0 53.982563 5.668169c3.688808-3.418896 20.243461-23.662357 3.328925-42.016428a21.413083 21.413083 0 0 0-32.209596-3.059012 16.28474 16.28474 0 0 0-1.619477 22.852618 16.28474 16.28474 0 0 0 22.942589 0s0 3.958721-6.74782 10.076745S470.007325 87.64357 461.010232 78.016679s-15.744914-37.337939 7.917442-69.007709c-8.907123 1.979361-17.904217 3.86875-26.721368 6.118024zM147.10163 430.342872c-3.148983-2.519186-20.873258-13.315699-33.379218 1.97936a16.914536 16.914536 0 0 0 1.079651 25.551747 12.50596 12.50596 0 1 0 15.834885-19.253781s2.969041-0.719768 8.997094 4.228634 4.498547 13.045786-2.069332 21.053199-34.638811 19.16381-67.658145-7.557558a55.332127 55.332127 0 0 1-4.76846-4.408576c-0.629797 6.387937-1.079651 12.685902-1.529506 19.073839 31.489828 23.932269 67.748116 23.572386 85.292449 2.159302a29.960322 29.960322 0 0 0-1.799418-42.826166z" fill="#F89B1B" opacity=".4" p-id="4465"></path><path d="M379.586533 961.801201m-17.364391 0a17.364391 17.364391 0 1 0 34.728782 0 17.364391 17.364391 0 1 0-34.728782 0Z" fill="#FED150" p-id="4466"></path><path d="M223.396985 856.17532m-17.364391 0a17.364391 17.364391 0 1 0 34.728782 0 17.364391 17.364391 0 1 0-34.728782 0Z" fill="#FED150" p-id="4467"></path><path d="M316.96676 930.94117m-26.991281 0a26.991281 26.991281 0 1 0 53.982563 0 26.991281 26.991281 0 1 0-53.982563 0Z" fill="#FED150" p-id="4468"></path><path d="M262.624314 891.803812m-26.991282 0a26.991281 26.991281 0 1 0 53.982563 0 26.991281 26.991281 0 1 0-53.982563 0Z" fill="#FED150" p-id="4469"></path><path d="M249.128673 891.803812m-7.197675 0a7.197675 7.197675 0 1 0 14.39535 0 7.197675 7.197675 0 1 0-14.39535 0Z" fill="#FFFFFF" p-id="4470"></path><path d="M409.816768 341.90144c-1.709448-49.394045-46.155091-103.466578-103.376608-111.114108-62.439831-8.277326-111.653934 21.862938-116.962219 64.689104a45.435324 45.435324 0 0 0 35.988375 53.982563c6.028053 0.809738 37.42791 0 41.296661-29.150584S245.079981 288.638645 245.079981 288.638645a18.893897 18.893897 0 1 0-4.948402 37.42791s-3.328925 3.328925-14.485321 1.439535-16.194769-13.135757-14.125437-28.700729 29.420497-52.363086 93.119921-44.355673c57.851313 7.377617 87.451752 65.048988 86.731984 104.456259a42.646225 42.646225 0 0 1-8.367297 18.983868v19.073839c27.621078-1.079651 27.890991-39.137358 26.811339-55.062214zM218.808467 579.604658c-5.578198-0.809738-34.728782 0-38.41759 26.991281a23.842299 23.842299 0 0 0 20.243461 29.870351 17.994188 17.994188 0 1 0 4.588517-34.728782s3.059012-3.148983 13.40567-1.349564 15.025147 12.146077 13.135757 26.991281-26.991281 48.584306-86.3721 41.116719c-53.982563-6.837791-81.603641-60.910325-80.973844-97.528497 2.87907-2.339244 0-20.063519 0-20.063519C52.272261 554.322824 47.143918 578.88489 47.143918 578.88489c-3.238954 47.774568 39.767155 103.466578 95.909019 110.934166 58.031255 7.737501 103.736491-20.243461 108.954806-60.010615a42.106399 42.106399 0 0 0-33.199276-50.203783zM578.87216 1022.351642s-10.256687 1.349564-35.988375-18.983867c0 0 20.693316 0 29.420497 0.98968s6.567878 17.994188 6.567878 17.994187z" fill="#FED150" p-id="4471"></path><path d="M206.66239 626.119632m-4.768459 0a4.76846 4.76846 0 1 0 9.536919 0 4.76846 4.76846 0 1 0-9.536919 0Z" fill="#FFFFFF" p-id="4472"></path><path d="M635.46388 881.907009m-5.578198 0a5.578198 5.578198 0 1 0 11.156396 0 5.578198 5.578198 0 1 0-11.156396 0Z" fill="#FFFFFF" p-id="4473"></path><path d="M245.619807 302.674111m-6.477908 0a6.477908 6.477908 0 1 0 12.955815 0 6.477908 6.477908 0 1 0-12.955815 0Z" fill="#FFFFFF" p-id="4474"></path></svg>